<svg version="1.2" xmlns="http://www.w3.org/2000/svg" viewBox="0 0 1920 1080" width="1920" height="1080">
	<title>The Replay Card Attempt</title>
	<style>
		.s0 { fill: #ffffff } 
	</style>
	<path id="Layer 1" class="s0" d="m150 958c71.39 5.05 143 7 143 7 0 0 3.32 0.49 6 2 4.8 2.7 8 8 8 8l19 28c0 0 2.99 2.94 6.57 4.49 3.93 1.68 8.55 1.73 8.55 1.73 0 0 186.4 7.52 372.88 11.78 122.98 2.81 246 4 246 4v55h-960v-134c0 0 74.88 6.69 150 12zm1620 0c-71.39 5.05-143 7-143 7 0 0-3.32 0.49-6 2-4.8 2.7-8 8-8 8l-19 28c0 0-2.99 2.94-6.57 4.49-3.93 1.68-8.55 1.73-8.55 1.73 0 0-186.4 7.52-372.88 11.78-122.98 2.81-246 4-246 4v55h960v-134c0 0-74.88 6.69-150 12z"/>
</svg>